<svg xmlns="http://www.w3.org/2000/svg" xmlns:svg="http://www.w3.org/2000/svg" xmlns:xlink="http://www.w3.org/1999/xlink" version="1.0" height="760pt" width="740.44pt" viewBox="475 117 748.44 766" ><defs><style type="text/css">
            @font-face {
                font-family: 'noto_regular';
                src: url('https://app.creately.com/diagram/assets/fonts/noto/noto-regular.woff') format('woff'),
                     url('https://app.creately.com/diagram/assets/fonts/noto/noto-regular.woff2') format('woff2');
                font-weight: normal;
                font-style: normal;
            }
        p {
            margin: 0;
        }
        </style></defs><defs><style>
            span{ display: inline-block; }
        </style></defs><g id="xOIPYxQC7qE"><g transform="translate(480 520)"><ellipse cx="20" cy="10" rx="10" ry="10" fill="rgb(255,255,255)" stroke="#FF3D3D" stroke-width="2" stroke-linecap="round" stroke-linejoin="round"/><path d="M 20,20 L 20,48 L 40,80 M 20,48 L 0,80 M 2,30 L 38,30" fill="none" stroke="#FF3D3D" stroke-width="2" stroke-linecap="round" stroke-linejoin="round"/><rect x="0" y="0" width="40" height="80" fill="rgba(255,255,255,0.01)" stroke="rgba(255,255,255,0.01)" stroke-width="2" stroke-linecap="round" stroke-linejoin="round"/></g><g transform="translate(485.415, 610) rotate(0, 14.585, 0)" width="29.17" height="18"><text text-decoration="none" x="1.5850000000000009" fill="#545454" font-size="10pt" font-family="noto_regular"  y="15">User</text><text text-decoration="none" x="27.585" fill="#4b4b4b" font-size="10pt" font-family="noto_regular"  y="15"></text></g></g><g id="Lxy3aVsB5fk"><g transform="translate(775 330)"><ellipse cx="60" cy="30" rx="60" ry="30" fill="rgb(36,175,175)" stroke="#24afaf" stroke-width="2" stroke-linecap="round" stroke-linejoin="round"/></g><g transform="translate(809.155, 351) rotate(0, 25.845, 9)" width="51.69" height="18"><text text-decoration="none" x="2.344999999999999" fill="#ffffff" font-size="10pt" font-family="noto_regular"  y="15">Register</text><text text-decoration="none" x="49.345" fill="#4b4b4b" font-size="10pt" font-family="noto_regular"  y="15"></text></g></g><g id="SbMARjhTqlR"><g transform="translate(775 630)"><ellipse cx="60" cy="30" rx="60" ry="30" fill="rgb(36,175,175)" stroke="#24afaf" stroke-width="2" stroke-linecap="round" stroke-linejoin="round"/></g><g transform="translate(817.53, 651) rotate(0, 17.47, 9)" width="34.94" height="18"><text text-decoration="none" x="1.9699999999999989" fill="#ffffff" font-size="10pt" font-family="noto_regular"  y="15">Login</text><text text-decoration="none" x="32.97" fill="#4b4b4b" font-size="10pt" font-family="noto_regular"  y="15"></text></g></g><g id="ImDtAO7vcsc"><g transform="translate(580 202.5)"><ellipse cx="60" cy="30" rx="60" ry="30" fill="rgb(36,175,175)" stroke="#24afaf" stroke-width="2" stroke-linecap="round" stroke-linejoin="round"/></g><g transform="translate(596.59, 223.5) rotate(0, 43.41, 9)" width="86.82" height="18"><text text-decoration="none" x="4.409999999999997" fill="#ffffff" font-size="10pt" font-family="noto_regular"  y="15">Custom&#160;</text><text text-decoration="none" x="51.41" fill="#ffffff" font-size="10pt" font-family="noto_regular"  y="15">Login</text><text text-decoration="none" x="82.41" fill="#4b4b4b" font-size="10pt" font-family="noto_regular"  y="15"></text></g></g><g id="wXZ75bLvZVT"><g transform="translate(770 120)"><ellipse cx="60" cy="30" rx="60" ry="30" fill="rgb(36,175,175)" stroke="#24afaf" stroke-width="2" stroke-linecap="round" stroke-linejoin="round"/></g><g transform="translate(807.76, 141) rotate(0, 22.24, 9)" width="44.48" height="18"><text text-decoration="none" x="1.2399999999999984" fill="#ffffff" font-size="10pt" font-family="noto_regular"  y="15">Service</text><text text-decoration="none" x="43.239999999999995" fill="#4b4b4b" font-size="10pt" font-family="noto_regular"  y="15"></text></g></g><g id="a1d65fTvSsq"><g transform="translate(960 202.5)"><ellipse cx="60" cy="30" rx="60" ry="30" fill="rgb(36,175,175)" stroke="#24afaf" stroke-width="2" stroke-linecap="round" stroke-linejoin="round"/></g><g transform="translate(979.975, 223.5) rotate(0, 40.025, 9)" width="80.05" height="18"><text text-decoration="none" x="4.024999999999999" fill="#ffffff" font-size="10pt" font-family="noto_regular"  y="15">Authenticate</text><text text-decoration="none" x="76.025" fill="#4b4b4b" font-size="10pt" font-family="noto_regular"  y="15"></text></g></g><g id="HZL3AsKHR6A"><g transform="translate(1180 192.5)"><ellipse cx="20" cy="10" rx="10" ry="10" fill="rgb(255,255,255)" stroke="#FF3D3D" stroke-width="2" stroke-linecap="round" stroke-linejoin="round"/><path d="M 20,20 L 20,48 L 40,80 M 20,48 L 0,80 M 2,30 L 38,30" fill="none" stroke="#FF3D3D" stroke-width="2" stroke-linecap="round" stroke-linejoin="round"/><rect x="0" y="0" width="40" height="80" fill="rgba(255,255,255,0.01)" stroke="rgba(255,255,255,0.01)" stroke-width="2" stroke-linecap="round" stroke-linejoin="round"/></g><g transform="translate(1179.56, 282.5) rotate(0, 20.44, 0)" width="40.88" height="18"><text text-decoration="none" x="2.4400000000000013" fill="#545454" font-size="10pt" font-family="noto_regular"  y="15">Admin</text><text text-decoration="none" x="38.44" fill="#4b4b4b" font-size="10pt" font-family="noto_regular"  y="15"></text></g></g><g id="CvfSJKJNkQK"><g transform="translate(1090 440)"><ellipse cx="60" cy="30" rx="60" ry="30" fill="rgb(36,175,175)" stroke="#24afaf" stroke-width="2" stroke-linecap="round" stroke-linejoin="round"/></g><g transform="translate(1098.09, 451.995) rotate(0, 51.91, 18.005)" width="103.82" height="36.01"><text text-decoration="none" x="23.909999999999997" fill="#ffffff" font-size="10pt" font-family="noto_regular"  y="12">Save&#160;</text><text text-decoration="none" x="54.91" fill="#ffffff" font-size="10pt" font-family="noto_regular"  y="12">user</text><text text-decoration="none" x="79.91" fill="#ffffff" font-size="10pt" font-family="noto_regular"  y="12"></text><text text-decoration="none" x="5.409999999999997" fill="#ffffff" font-size="10pt" font-family="noto_regular"  y="31">login&#160;</text><text text-decoration="none" x="35.41" fill="#ffffff" font-size="10pt" font-family="noto_regular"  y="31">credentials</text><text text-decoration="none" x="98.41" fill="#4b4b4b" font-size="10pt" font-family="noto_regular"  y="31"></text></g></g><g id="oJOPhUwgY6Y"><g transform="translate(1090 530)"><ellipse cx="60" cy="30" rx="60" ry="30" fill="rgb(36,175,175)" stroke="#24afaf" stroke-width="2" stroke-linecap="round" stroke-linejoin="round"/></g><g transform="translate(1106.48, 551) rotate(0, 43.52, 9)" width="87.04" height="18"><text text-decoration="none" x="4.020000000000003" fill="#ffffff" font-size="10pt" font-family="noto_regular"  y="15">Stay&#160;</text><text text-decoration="none" x="32.02" fill="#ffffff" font-size="10pt" font-family="noto_regular"  y="15">signed&#160;</text><text text-decoration="none" x="73.02000000000001" fill="#ffffff" font-size="10pt" font-family="noto_regular"  y="15">in</text><text text-decoration="none" x="83.02000000000001" fill="#4b4b4b" font-size="10pt" font-family="noto_regular"  y="15"></text></g></g><g id="jIfI5tx0uJJ"><g transform="translate(1090 630)"><ellipse cx="60" cy="30" rx="60" ry="30" fill="rgb(36,175,175)" stroke="#24afaf" stroke-width="2" stroke-linecap="round" stroke-linejoin="round"/></g><g transform="translate(1097.11, 651) rotate(0, 52.89, 9)" width="105.78" height="18"><text text-decoration="none" x="5.390000000000001" fill="#ffffff" font-size="10pt" font-family="noto_regular"  y="15">Forgot&#160;</text><text text-decoration="none" x="44.39" fill="#ffffff" font-size="10pt" font-family="noto_regular"  y="15">password</text><text text-decoration="none" x="100.39" fill="#4b4b4b" font-size="10pt" font-family="noto_regular"  y="15"></text></g></g><g id="RYK82SkvGvd"><g transform="translate(1090 720)"><ellipse cx="60" cy="30" rx="60" ry="30" fill="rgb(36,175,175)" stroke="#24afaf" stroke-width="2" stroke-linecap="round" stroke-linejoin="round"/></g><g transform="translate(1103.86, 741) rotate(0, 46.14, 9)" width="92.28" height="18"><text text-decoration="none" x="5.140000000000001" fill="#ffffff" font-size="10pt" font-family="noto_regular"  y="15">Authentication</text><text text-decoration="none" x="87.14" fill="#4b4b4b" font-size="10pt" font-family="noto_regular"  y="15"></text></g></g><g id="RZqRdRh8lUD"><g transform="translate(1090 820)"><ellipse cx="60" cy="30" rx="60" ry="30" fill="rgb(36,175,175)" stroke="#24afaf" stroke-width="2" stroke-linecap="round" stroke-linejoin="round"/></g><g transform="translate(1107.965, 831.995) rotate(0, 42.035, 18.005)" width="84.07" height="36.01"><text text-decoration="none" x="19.034999999999997" fill="#ffffff" font-size="10pt" font-family="noto_regular"  y="12">Session</text><text text-decoration="none" x="65.035" fill="#ffffff" font-size="10pt" font-family="noto_regular"  y="12"></text><text text-decoration="none" x="4.534999999999997" fill="#ffffff" font-size="10pt" font-family="noto_regular"  y="31">Management</text><text text-decoration="none" x="79.535" fill="#4b4b4b" font-size="10pt" font-family="noto_regular"  y="31"></text></g></g><g id="tDFK1cwpiSh"><g><path d="M 1080,233 L 1165,233" fill="none" stroke="#7C7B7A" stroke-width="2" stroke-linecap="round" stroke-linejoin="round"/></g></g><g id="TRgdkEZcL9F"><g><path d="M 535,528 L 775,360" fill="none" stroke="#7C7B7A" stroke-width="2" stroke-linecap="round" stroke-linejoin="round"/></g></g><g id="SV7fW2XnmYp"><g><path d="M 535,608 L 775,660" fill="none" stroke="#7C7B7A" stroke-width="2" stroke-linecap="round" stroke-linejoin="round"/></g></g><g id="X6jbIRdhWcT"><mask id="7dd4c" x="680" y="232" width="145" height="114" maskUnits="userSpaceOnUse"><rect x="680" y="232" width="145" height="114" fill="white" /><rect x="712.065" y="277" width="80.87" height="24" fill="black" /></mask><g mask="url(#7dd4c)"><path d="M 811,332 L 694,246" fill="none" stroke="#7C7B7A" stroke-width="2" stroke-linecap="round" stroke-linejoin="round" stroke-dasharray="3 3"/><path d="M 694,246 L 695.7077833373774,255.36429151594265 M 694,246 L 703.4589656303862,244.93489496942624 Z" fill="rgb(255,255,255)" stroke="#7C7B7A" stroke-width="2" stroke-linecap="round" stroke-linejoin="round"/></g><g transform="translate(715.065, 280)" width="74.87" height="18"><text text-decoration="none" x="2.9350000000000023" fill="rgb(84, 84, 84)" font-size="10pt" font-family="noto_regular"  y="15">&#x3C;&#x3C;include&#x3E;&#x3E;</text><text text-decoration="none" x="71.935" fill="#4b4b4b" font-size="10pt" font-family="noto_regular"  y="15"></text></g></g><g id="26R380yaefJ"><mask id="b3a71" x="816" y="166" width="33" height="178" maskUnits="userSpaceOnUse"><rect x="816" y="166" width="33" height="178" fill="white" /><rect x="792.065" y="243" width="80.87" height="24" fill="black" /></mask><g mask="url(#b3a71)"><path d="M 835,330 L 830,180" fill="none" stroke="#7C7B7A" stroke-width="2" stroke-linecap="round" stroke-linejoin="round" stroke-dasharray="3 3"/><path d="M 830,180 L 823.738186736082,187.1691125092859 M 830,180 L 836.7253239454157,186.73620793564146 Z" fill="rgb(255,255,255)" stroke="#7C7B7A" stroke-width="2" stroke-linecap="round" stroke-linejoin="round"/></g><g transform="translate(795.065, 246)" width="74.87" height="18"><text text-decoration="none" x="2.9350000000000023" fill="rgb(84, 84, 84)" font-size="10pt" font-family="noto_regular"  y="15">&#x3C;&#x3C;include&#x3E;&#x3E;</text><text text-decoration="none" x="71.935" fill="#4b4b4b" font-size="10pt" font-family="noto_regular"  y="15"></text></g></g><g id="m5IbOyjQNC9"><mask id="35367" x="845" y="219" width="129" height="127" maskUnits="userSpaceOnUse"><rect x="845" y="219" width="129" height="127" fill="white" /><rect x="870.135" y="270.5" width="78.73" height="24" fill="black" /></mask><g mask="url(#35367)"><path d="M 859,332 L 960,233" fill="none" stroke="#7C7B7A" stroke-width="2" stroke-linecap="round" stroke-linejoin="round" stroke-dasharray="3 3"/><path d="M 859,332 L 868.514836107886,331.7272851983329 M 859,332 L 859.3768896495351,322.488720710911 Z" fill="rgb(255,255,255)" stroke="#7C7B7A" stroke-width="2" stroke-linecap="round" stroke-linejoin="round"/></g><g transform="translate(873.135, 273.5)" width="72.73" height="18"><text text-decoration="none" x="3.365000000000002" fill="rgb(84, 84, 84)" font-size="10pt" font-family="noto_regular"  y="15">&#x3C;&#x3C;extend&#x3E;&#x3E;</text><text text-decoration="none" x="69.36500000000001" fill="#4b4b4b" font-size="10pt" font-family="noto_regular"  y="15"></text></g></g><g id="BJsqsblOaIh"><mask id="2600b" x="862" y="469" width="248" height="183" maskUnits="userSpaceOnUse"><rect x="862" y="469" width="248" height="183" fill="white" /><rect x="945.565" y="548.5" width="80.87" height="24" fill="black" /></mask><g mask="url(#2600b)"><path d="M 1096,483 L 876,638" fill="none" stroke="#7C7B7A" stroke-width="2" stroke-linecap="round" stroke-linejoin="round" stroke-dasharray="3 3"/><path d="M 876,638 L 885.4285313982057,639.307392517964 M 876,638 L 877.9474308005305,628.6825973146952 Z" fill="rgb(255,255,255)" stroke="#7C7B7A" stroke-width="2" stroke-linecap="round" stroke-linejoin="round"/></g><g transform="translate(948.565, 551.5)" width="74.87" height="18"><text text-decoration="none" x="2.9350000000000023" fill="rgb(84, 84, 84)" font-size="10pt" font-family="noto_regular"  y="15">&#x3C;&#x3C;include&#x3E;&#x3E;</text><text text-decoration="none" x="71.935" fill="#4b4b4b" font-size="10pt" font-family="noto_regular"  y="15"></text></g></g><g id="KHXxrKA7BxY"><mask id="803ed" x="875" y="546" width="229" height="115" maskUnits="userSpaceOnUse"><rect x="875" y="546" width="229" height="115" fill="white" /><rect x="949.065" y="591.5" width="80.87" height="24" fill="black" /></mask><g mask="url(#803ed)"><path d="M 1090,560 L 889,647" fill="none" stroke="#7C7B7A" stroke-width="2" stroke-linecap="round" stroke-linejoin="round" stroke-dasharray="3 3"/><path d="M 889,647 L 897.9654108585127,650.1981068870573 M 889,647 L 892.8021545580931,638.2735975202062 Z" fill="rgb(255,255,255)" stroke="#7C7B7A" stroke-width="2" stroke-linecap="round" stroke-linejoin="round"/></g><g transform="translate(952.065, 594.5)" width="74.87" height="18"><text text-decoration="none" x="2.9350000000000023" fill="rgb(84, 84, 84)" font-size="10pt" font-family="noto_regular"  y="15">&#x3C;&#x3C;include&#x3E;&#x3E;</text><text text-decoration="none" x="71.935" fill="#4b4b4b" font-size="10pt" font-family="noto_regular"  y="15"></text></g></g><g id="fDtimYNFxJk"><mask id="7fe82" x="881" y="646" width="223" height="28" maskUnits="userSpaceOnUse"><rect x="881" y="646" width="223" height="28" fill="white" /><rect x="952.065" y="648" width="80.87" height="24" fill="black" /></mask><g mask="url(#7fe82)"><path d="M 1090,660 L 895,660" fill="none" stroke="#7C7B7A" stroke-width="2" stroke-linecap="round" stroke-linejoin="round" stroke-dasharray="3 3"/><path d="M 895,660 L 901.9565217391304,666.4971751412429 M 895,660 L 901.9565217391304,653.5028248587571 Z" fill="rgb(255,255,255)" stroke="#7C7B7A" stroke-width="2" stroke-linecap="round" stroke-linejoin="round"/></g><g transform="translate(955.065, 651)" width="74.87" height="18"><text text-decoration="none" x="2.9350000000000023" fill="rgb(84, 84, 84)" font-size="10pt" font-family="noto_regular"  y="15">&#x3C;&#x3C;include&#x3E;&#x3E;</text><text text-decoration="none" x="71.935" fill="#4b4b4b" font-size="10pt" font-family="noto_regular"  y="15"></text></g></g><g id="Vsccd896GJQ"><mask id="dd008" x="875" y="659" width="229" height="105" maskUnits="userSpaceOnUse"><rect x="875" y="659" width="229" height="105" fill="white" /><rect x="949.065" y="699.5" width="80.87" height="24" fill="black" /></mask><g mask="url(#dd008)"><path d="M 1090,750 L 889,673" fill="none" stroke="#7C7B7A" stroke-width="2" stroke-linecap="round" stroke-linejoin="round" stroke-dasharray="3 3"/><path d="M 889,673 L 893.170855136409,681.5563103586809 M 889,673 L 897.8208624477493,669.422449832516 Z" fill="rgb(255,255,255)" stroke="#7C7B7A" stroke-width="2" stroke-linecap="round" stroke-linejoin="round"/></g><g transform="translate(952.065, 702.5)" width="74.87" height="18"><text text-decoration="none" x="2.9350000000000023" fill="rgb(84, 84, 84)" font-size="10pt" font-family="noto_regular"  y="15">&#x3C;&#x3C;include&#x3E;&#x3E;</text><text text-decoration="none" x="71.935" fill="#4b4b4b" font-size="10pt" font-family="noto_regular"  y="15"></text></g></g><g id="106NOTuLAYm"><mask id="1a38d" x="862" y="668" width="242" height="196" maskUnits="userSpaceOnUse"><rect x="862" y="668" width="242" height="196" fill="white" /><rect x="942.565" y="754" width="80.87" height="24" fill="black" /></mask><g mask="url(#1a38d)"><path d="M 1090,850 L 876,682" fill="none" stroke="#7C7B7A" stroke-width="2" stroke-linecap="round" stroke-linejoin="round" stroke-dasharray="3 3"/><path d="M 876,682 L 877.4642639053527,691.4054458022181 M 876,682 L 885.4834145807952,681.1806542782557 Z" fill="rgb(255,255,255)" stroke="#7C7B7A" stroke-width="2" stroke-linecap="round" stroke-linejoin="round"/></g><g transform="translate(945.565, 757)" width="74.87" height="18"><text text-decoration="none" x="2.9350000000000023" fill="rgb(84, 84, 84)" font-size="10pt" font-family="noto_regular"  y="15">&#x3C;&#x3C;include&#x3E;&#x3E;</text><text text-decoration="none" x="71.935" fill="#4b4b4b" font-size="10pt" font-family="noto_regular"  y="15"></text></g></g></svg>